<?xml version="1.0" encoding="utf-8"?>
<!-- Generator: Adobe Illustrator 22.1.0, SVG Export Plug-In . SVG Version: 6.00 Build 0)  -->
<svg version="1.1" id="Слой_1" xmlns="http://www.w3.org/2000/svg" xmlns:xlink="http://www.w3.org/1999/xlink" x="0px" y="0px"
	 viewBox="0 0 45 45" style="enable-background:new 0 0 45 45;" xml:space="preserve">
<style type="text/css">
	.st0{fill:#494949;stroke:#110909;stroke-width:0.25;stroke-miterlimit:10;}
</style>
<path class="st0" d="M23.4,23.3l7.6-7.6c0.3-0.3,0.3-0.8,0-1L31,14.6c-0.3-0.3-0.8-0.3-1,0l-7.6,7.6l-7.6-7.6c-0.3-0.3-0.8-0.3-1,0
	l-0.1,0.1c-0.3,0.3-0.3,0.8,0,1l7.6,7.6L13.6,31c-0.3,0.3-0.3,0.8,0,1l0.1,0.1c0.3,0.3,0.8,0.3,1,0l7.6-7.6l7.6,7.6
	c0.3,0.3,0.8,0.3,1,0l0.1-0.1c0.3-0.3,0.3-0.8,0-1L23.4,23.3z"/>
</svg>
