<?xml version="1.0" encoding="utf-8"?>
<!-- Generator: Adobe Illustrator 22.1.0, SVG Export Plug-In . SVG Version: 6.00 Build 0)  -->
<svg version="1.1" id="Слой_1" xmlns="http://www.w3.org/2000/svg" xmlns:xlink="http://www.w3.org/1999/xlink" x="0px" y="0px"
	 viewBox="0 0 45 45" style="enable-background:new 0 0 45 45;" xml:space="preserve">
<style type="text/css">
	.st0{fill:#939393;stroke:#000000;stroke-width:0.25;stroke-miterlimit:10;}
</style>
<g>
	<path class="st0" d="M28.2,19.7c0.5-0.5,0.5-1.3,0-1.8c-0.5-0.5-1.3-0.5-1.8,0c0,0,0,0.1-0.1,0.1l0,0L14.7,29.7
		c-0.2,0.2-0.2,0.4,0,0.6l1.2,1.2c0.2,0.2,0.4,0.2,0.6,0L28.2,19.7l-0.1,0.1C28.2,19.8,28.2,19.8,28.2,19.7z"/>
	<path class="st0" d="M14.3,32.2l1.9-0.5c0.1,0,0.1-0.1,0-0.2l-1.6-1.6c-0.1-0.1-0.2,0-0.2,0L14,31.9C13.9,32.1,14.1,32.3,14.3,32.2
		z"/>
</g>
</svg>
